<?xml version="1.0" encoding="UTF-8" standalone="no"?>
<svg
   xmlns:dc="http://purl.org/dc/elements/1.1/"
   xmlns:cc="http://creativecommons.org/ns#"
   xmlns:rdf="http://www.w3.org/1999/02/22-rdf-syntax-ns#"
   xmlns:svg="http://www.w3.org/2000/svg"
   xmlns="http://www.w3.org/2000/svg"
   xmlns:sodipodi="http://sodipodi.sourceforge.net/DTD/sodipodi-0.dtd"
   xmlns:inkscape="http://www.inkscape.org/namespaces/inkscape"
   width="297mm"
   height="210mm"
   viewBox="0 0 297 210"
   version="1.1"
   id="svg8"
   inkscape:version="1.0.1 (c497b03c, 2020-09-10)"
   sodipodi:docname="page2.svg">
  <defs
     id="defs2">
    <inkscape:path-effect
       effect="spiro"
       id="path-effect1099"
       is_visible="true"
       lpeversion="1" />
    <inkscape:path-effect
       effect="spiro"
       id="path-effect1087"
       is_visible="true"
       lpeversion="1" />
    <inkscape:path-effect
       effect="spiro"
       id="path-effect1083"
       is_visible="true"
       lpeversion="1" />
    <inkscape:path-effect
       effect="spiro"
       id="path-effect1079"
       is_visible="true"
       lpeversion="1" />
    <inkscape:path-effect
       effect="spiro"
       id="path-effect1024"
       is_visible="true"
       lpeversion="1" />
    <inkscape:path-effect
       effect="spiro"
       id="path-effect1020"
       is_visible="true"
       lpeversion="1" />
    <inkscape:path-effect
       effect="spiro"
       id="path-effect986"
       is_visible="true"
       lpeversion="1" />
    <inkscape:path-effect
       effect="spiro"
       id="path-effect982"
       is_visible="true"
       lpeversion="1" />
  </defs>
  <sodipodi:namedview
     id="base"
     pagecolor="#ffffff"
     bordercolor="#666666"
     borderopacity="1.0"
     inkscape:pageopacity="0.0"
     inkscape:pageshadow="2"
     inkscape:zoom="0.63420849"
     inkscape:cx="607.6696"
     inkscape:cy="404.46031"
     inkscape:document-units="mm"
     inkscape:current-layer="layer1"
     inkscape:document-rotation="0"
     showgrid="false"
     inkscape:window-width="1252"
     inkscape:window-height="707"
     inkscape:window-x="0"
     inkscape:window-y="23"
     inkscape:window-maximized="0" />
  <metadata
     id="metadata5">
    <rdf:RDF>
      <cc:Work
         rdf:about="">
        <dc:format>image/svg+xml</dc:format>
        <dc:type
           rdf:resource="http://purl.org/dc/dcmitype/StillImage" />
        <dc:title />
      </cc:Work>
    </rdf:RDF>
  </metadata>
  <g
     inkscape:label="Layer 1"
     inkscape:groupmode="layer"
     id="layer1">
    <rect
       style="fill:#000000;stroke-width:0.264583;opacity:1"
       id="rect28"
       width="300.1131"
       height="213.93451"
       x="-0.75595242"
       y="-1.5119048" />
    <path
       style="fill:#ffffff;stroke:#000000;stroke-width:0.0992273px;stroke-linecap:butt;stroke-linejoin:miter;stroke-opacity:1"
       d="m 140.51455,37.253928 0.61474,-13.061179 0.46106,12.583331 4.45685,-6.53059 -3.84211,7.327002 h 7.9916 l -7.9916,0.955696 2.30527,4.619198 -2.92001,-3.982066 v 9.238394 l -1.0758,-9.079112 -2.30527,4.141349 1.53685,-4.459914 -5.84002,-0.796413 5.37897,-0.477849 -2.45896,-5.256327 z"
       id="path859"
       inkscape:transform-center-x="-1.2519664"
       inkscape:transform-center-y="-1.2533129" />
    <path
       style="fill:#ffffff;stroke:#000000;stroke-width:0.0662844px;stroke-linecap:butt;stroke-linejoin:miter;stroke-opacity:1"
       d="m 47.081055,70.67978 0.44172,-8.111246 0.33129,7.814493 3.20248,-4.055623 -2.76076,4.550211 h 5.74236 l -5.74236,0.593505 1.65645,2.868612 -2.09817,-2.47294 v 5.737221 l -0.77301,-5.638304 -1.65645,2.571858 1.1043,-2.769693 -4.196343,-0.494588 3.865053,-0.296754 -1.76688,-3.264281 z"
       id="path859-4"
       inkscape:transform-center-x="-0.89960062"
       inkscape:transform-center-y="-0.77833184" />
    <path
       style="fill:#ffffff;stroke:#000000;stroke-width:0.112463px;stroke-linecap:butt;stroke-linejoin:miter;stroke-opacity:1"
       d="m 260.37433,170.42483 0.89806,-11.48473 0.67355,11.06455 6.511,-5.74236 -5.61293,6.44265 h 11.67485 l -11.67485,0.84035 3.36774,4.06167 -4.26581,-3.50144 v 8.12334 l -1.57161,-7.98329 -3.36775,3.6415 2.24516,-3.92161 -8.53162,-0.70029 7.85807,-0.42017 -3.59226,-4.6219 z"
       id="path859-4-9"
       inkscape:transform-center-x="-1.8289884"
       inkscape:transform-center-y="-1.1020396" />
    <path
       style="fill:#ffffff;stroke:#000000;stroke-width:0.0653569px;stroke-linecap:butt;stroke-linejoin:miter;stroke-opacity:1"
       d="m 104.65282,189.56044 0.44166,-7.88698 0.33124,7.59842 3.202,-3.94349 -2.76035,4.4244 h 5.7415 l -5.7415,0.5771 1.6562,2.7893 -2.09785,-2.40457 v 5.5786 l -0.7729,-5.48241 -1.6562,2.50075 1.10414,-2.69312 -4.195725,-0.48091 3.864485,-0.28854 -1.76663,-3.17403 z"
       id="path859-4-9-1"
       inkscape:transform-center-x="-0.89946301"
       inkscape:transform-center-y="-0.75680851" />
    <path
       style="fill:#ffffff;stroke:#000000;stroke-width:0.162813px;stroke-linecap:butt;stroke-linejoin:miter;stroke-opacity:1"
       d="m 69.744341,187.97783 1.05525,-20.4853 0.79143,19.7358 7.65047,-10.24264 -6.59525,11.49174 h 13.71805 l -13.71805,1.49893 3.95713,7.24481 -5.01235,-6.24553 v 14.48961 l -1.84668,-14.23977 -3.95712,6.49534 2.6381,-6.99499 -10.02475,-1.2491 9.23332,-0.74944 -4.22097,-8.24408 z"
       id="path859-4-9-1-7"
       inkscape:transform-center-x="-2.1490685"
       inkscape:transform-center-y="-1.9657038" />
    <path
       style="fill:#ffffff;stroke:#000000;stroke-width:0.264583px;stroke-linecap:butt;stroke-linejoin:miter;stroke-opacity:1"
       d="m 55.485827,104.71385 c 6.879947,-7.714511 13.83348,-15.363396 20.859334,-22.945264 2.894004,-3.12303 5.866956,-6.287504 9.595295,-8.34373 1.74407,-0.961877 3.618715,-1.660502 5.423426,-2.503121 6.839778,-3.193488 12.733778,-8.475307 20.024968,-10.429666 3.98509,-1.068181 8.18046,-1.07409 12.29363,-0.751948 4.11318,0.322141 8.19969,0.96445 12.32038,1.169132 8.48777,0.421603 16.95337,-1.018055 25.44839,-1.251558 6.55711,-0.180236 13.31991,0.411157 19.19058,3.337494 3.38928,1.689445 6.39856,4.132324 8.76092,7.092172 0.93947,1.17708 1.77792,2.434758 2.50312,3.754685 3.24251,3.713673 6.88606,7.076948 10.84686,10.01247 3.18424,2.359979 6.61714,4.484416 9.1781,7.50937 3.31361,3.913965 4.86878,8.967494 6.67499,13.767154 1.13286,3.01037 2.40199,6.00368 2.92031,9.17811 0.8952,5.48265 -0.57956,11.24597 -3.69654,15.84437 -3.11697,4.5984 -7.79865,8.04609 -12.99093,10.0212 -8.71816,3.31634 -18.43326,2.54573 -27.53432,4.58906 -1.10304,0.24765 -2.19997,0.53726 -3.32229,0.67296 -1.12232,0.1357 -2.2837,0.11198 -3.3527,-0.25578 -0.41641,-0.14325 -0.81834,-0.3382 -1.25156,-0.41718 -0.42089,-0.0767 -0.85595,-0.0403 -1.27427,0.0494 -0.41832,0.0897 -0.82329,0.2316 -1.22885,0.36783 -5.6237,1.88906 -11.59393,2.73631 -17.52184,2.50312 -5.58357,-0.21965 -11.27176,-1.37648 -16.68746,0 -0.76874,0.19539 -1.53029,0.44179 -2.32006,0.51527 -0.39489,0.0367 -0.7958,0.0294 -1.18449,-0.0493 -0.3887,-0.0787 -0.76537,-0.2305 -1.08451,-0.46595 -0.31711,-0.23395 -0.56925,-0.54283 -0.83437,-0.83437 -1.80726,-1.98735 -4.29601,-3.23227 -6.84106,-4.0916 -2.54506,-0.85934 -5.19332,-1.37532 -7.76047,-2.1662 -10.12262,-3.11856 -18.502406,-10.33089 -28.368703,-14.18435 -4.075107,-1.59161 -8.429305,-2.62352 -12.098411,-5.00624 -1.966997,-1.27737 -3.675674,-2.90601 -5.44652,-4.44381 -1.770847,-1.53781 -3.64671,-3.01204 -5.81752,-3.89992 -0.578123,-0.23646 -1.186755,-0.4371 -1.668748,-0.83437 -0.509644,-0.42006 -0.830762,-1.02198 -1.112613,-1.61926 -0.281851,-0.59728 -0.543841,-1.21651 -0.97332,-1.71824 -0.256534,-0.29969 -0.565756,-0.54872 -0.864382,-0.80649 -0.298627,-0.25778 -0.591756,-0.52996 -0.804366,-0.86226 -0.237456,-0.37113 -0.366123,-0.81097 -0.366123,-1.25156 0,-0.44059 0.128667,-0.88043 0.366123,-1.25156 z"
       id="path980"
       inkscape:path-effect="#path-effect982"
       inkscape:original-d="m 55.485827,104.71385 c 2.393495,-9.111144 14.768824,-17.629904 20.859334,-22.945264 3.193426,-2.78699 6.159193,-5.8621 9.595295,-8.34373 1.614117,-1.165753 3.724484,-1.464878 5.423426,-2.503121 12.631448,-7.719214 -38.256257,4.834461 20.024968,-10.429666 12.56297,-3.290303 14.61977,-0.735997 24.61401,0.417184 8.43707,0.973511 16.96615,-1.679956 25.44839,-1.251558 6.48461,0.327506 13.10739,1.067644 19.19058,3.337494 3.52018,1.3135 6.004,4.539464 8.76092,7.092172 2.58656,2.39496 2.50312,2.052251 2.50312,3.754685 3.61562,3.33749 7.14378,6.77229 10.84686,10.01247 2.97485,2.603 6.33264,4.76552 9.1781,7.50937 2.9396,2.83461 5.41591,10.745354 6.67499,13.767154 1.66361,3.99266 3.55547,6.63747 2.92031,9.17811 -2.49319,9.97275 -9.26319,19.05999 -16.68747,25.86557 -7.11007,6.51757 -19.53721,4.44365 -27.53432,4.58906 -2.22897,0.0405 -4.44565,0.41718 -6.67499,0.41718 -0.43975,0 -0.8118,-0.41718 -1.25156,-0.41718 -0.84588,0 -1.66609,0.29512 -2.50312,0.41718 -5.83815,0.8514 -11.63766,2.07257 -17.52184,2.50312 -5.54766,0.40593 -11.12497,0 -16.68746,0 -1.52969,0 -3.07716,0.2326 -4.58906,0 -0.38875,-0.0598 -0.5071,-0.61619 -0.83437,-0.83437 -4.40598,-2.93732 -9.8284,-3.96483 -14.60153,-6.2578 -9.5298,-4.57804 -18.839382,-9.60532 -28.368703,-14.18435 -9.176183,-4.40933 2.822737,3.23966 -12.098411,-5.00624 -10.167281,-5.61876 -5.475343,-4.00221 -11.26404,-8.34373 -0.497525,-0.37314 -1.190988,-0.43624 -1.668748,-0.83437 -0.948905,-0.79076 -1.324147,-2.38526 -2.085933,-3.3375 -0.491419,-0.61427 -1.316945,-0.96514 -1.668748,-1.66875 -0.373142,-0.74628 0,-1.66874 0,-2.50312 z" />
    <ellipse
       style="opacity:1;fill:#00ffff;fill-opacity:1;stroke-width:0.218235"
       id="path954"
       cx="126.82477"
       cy="101.37636"
       rx="43.804607"
       ry="43.596012" />
    <path
       style="fill:#ffffff;stroke:#000000;stroke-width:0.111313px;stroke-linecap:butt;stroke-linejoin:miter;stroke-opacity:1"
       d="m 21.288183,17.934267 0.91362,-11.0599544 0.6852,10.6553014 6.62363,-5.529973 -5.71004,6.204359 h 11.87682 l -11.87682,0.809268 3.426,3.911452 -4.33959,-3.371944 v 7.822899 l -1.59882,-7.688011 -3.426,3.506815 2.28402,-3.776575 -8.67923,-0.674385 7.99403,-0.404621 -3.65444,-4.450955 z"
       id="path859-4-9-1-7-2"
       inkscape:transform-center-x="-1.8606238"
       inkscape:transform-center-y="-1.0612778" />
    <path
       style="fill:#ffffff;stroke:none;stroke-width:0.26458300000000001px;stroke-linecap:butt;stroke-linejoin:miter;stroke-opacity:1"
       d="m 132.66536,89.277948 c 1.16621,-1.112194 2.76894,-1.753922 4.38046,-1.753922 1.61152,0 3.21425,0.641728 4.38046,1.753922 0.17283,0.164827 0.33959,0.344226 0.43494,0.563197 0.0477,0.109486 0.0765,0.22802 0.0762,0.347433 -3.3e-4,0.119414 -0.0306,0.239689 -0.0939,0.340931 -0.0239,0.03824 -0.0523,0.07351 -0.0774,0.110962 -0.0251,0.03745 -0.0473,0.07779 -0.0569,0.121864 -0.01,0.04408 -0.005,0.09255 0.0189,0.13049 0.0122,0.01897 0.0293,0.03493 0.0496,0.04479 0.0203,0.0099 0.0437,0.01347 0.0659,0.0091 0.0195,-0.0039 0.0376,-0.01385 0.052,-0.02757 0.0144,-0.01372 0.0252,-0.03108 0.032,-0.04976 0.0136,-0.03737 0.0115,-0.07902 0.002,-0.117527 -0.02,-0.07702 -0.0697,-0.144349 -0.0856,-0.222327 -0.009,-0.04444 -0.007,-0.09098 0.006,-0.13464 0.0123,-0.04366 0.0342,-0.08442 0.0626,-0.119753 0.0568,-0.07067 0.13867,-0.11849 0.22536,-0.14514 0.17337,-0.0533 0.35951,-0.02567 0.54071,-0.01765 0.76498,0.03382 1.5071,-0.295207 2.12794,-0.74342 0.62084,-0.448212 1.14506,-1.014213 1.70411,-1.537474 0.55904,-0.523261 1.1721,-1.015441 1.89477,-1.26859 0.36133,-0.126575 0.7471,-0.190587 1.12891,-0.162212 0.38181,0.02837 0.75942,0.151462 1.07082,0.374203 0.28831,0.20622 0.51274,0.491013 0.69408,0.795581 0.18135,0.304569 0.3227,0.630823 0.47253,0.95207 0.14982,0.321246 0.30986,0.640462 0.52381,0.923082 0.21394,0.282621 0.48608,0.529038 0.8127,0.66676 0.32459,0.136868 0.68674,0.160319 1.03818,0.136148 0.35144,-0.02417 0.69803,-0.09382 1.04775,-0.136148 1.20748,-0.146142 2.46672,0.0458 3.53682,0.623952 1.07009,0.578152 1.93667,1.553982 2.3038,2.713542 0.15366,0.485332 0.22016,0.993101 0.31986,1.49232 0.0997,0.499219 0.23715,1.0011 0.51451,1.427987 0.43649,0.671815 1.16651,1.084667 1.86981,1.46836 0.70331,0.383694 1.43588,0.78842 1.88487,1.451947 0.2496,0.368873 0.39808,0.80658 0.41719,1.25156 0.0194,0.45277 -0.0948,0.90828 -0.31089,1.30664 -0.21607,0.39836 -0.53212,0.73979 -0.90305,1.00015 -0.74187,0.52074 -1.68465,0.7065 -2.58833,0.63662 -0.90369,-0.0699 -1.77417,-0.37973 -2.58879,-0.77713 -0.81461,-0.39741 -1.58242,-0.88306 -2.36986,-1.33191 -5.26751,-3.00258 -11.62321,-4.323278 -17.52184,-2.920304 -2.26003,0.537542 -4.40865,1.453749 -6.59831,2.229684 -2.18966,0.77594 -4.46998,1.4197 -6.79267,1.37709 -1.16134,-0.0213 -2.32493,-0.21729 -3.40679,-0.64006 -1.08187,-0.42277 -2.08063,-1.07667 -2.85313,-1.944083 -0.77251,-0.867412 -1.31214,-1.951942 -1.47471,-3.102047 -0.16258,-1.150105 0.0633,-2.361884 0.68346,-3.344011 0.24533,-0.38852 0.55213,-0.742016 0.92468,-1.010979 0.37255,-0.268963 0.81295,-0.45103 1.27093,-0.488348 0.45797,-0.03732 0.93256,0.07578 1.30535,0.344421 0.37278,0.268637 0.6347,0.696842 0.67091,1.154906 0.0138,0.174407 -0.004,0.353688 0.0465,0.521331 0.025,0.08382 0.0676,0.163896 0.13186,0.223264 0.0643,0.05937 0.15156,0.09633 0.23879,0.08978 0.0513,-0.0039 0.10094,-0.02237 0.14448,-0.04977 0.0435,-0.02741 0.0812,-0.06351 0.11362,-0.103438 0.0649,-0.07986 0.10892,-0.174138 0.15909,-0.263972 0.20547,-0.367945 0.52177,-0.669254 0.88742,-0.878779 0.36565,-0.209525 0.77934,-0.32922 1.19851,-0.372782 0.55364,-0.05754 1.11233,0.01509 1.66875,0 0.95176,-0.02581 1.89508,-0.314423 2.69834,-0.82559 0.80326,-0.511167 1.46423,-1.243459 1.89071,-2.094717 z"
       id="path1077"
       inkscape:path-effect="#path-effect1079"
       inkscape:original-d="m 132.66536,89.277948 c 2.81478,-1.687824 6.82764,-3.86657 8.76092,0 0.19667,0.393327 0.31053,0.824937 0.41719,1.251561 0.0337,0.134909 -0.13906,0.417185 0,0.417185 0.13906,0 -0.0983,-0.318855 0,-0.417185 0.21988,-0.219876 0.57068,-0.252383 0.83437,-0.417187 1.54146,-0.963411 5.78335,-4.409093 7.92655,-3.337493 1.28638,0.643191 1.29768,2.734775 2.50312,3.337493 0.3496,0.174797 1.94027,-0.02913 2.08593,0 2.37011,0.47402 4.35515,1.356868 5.84062,3.337494 0.55401,0.73869 0.0883,2.920307 0.83437,2.920307 2.16805,0 2.95074,1.312434 3.75468,2.920307 0.34527,0.690538 0.79702,0.112067 0.41719,1.25156 -0.79923,2.39769 -7.15636,1.11753 -8.76092,0.83437 -5.57629,-0.98405 -11.88496,-2.450566 -17.52184,-2.920304 -4.57501,-0.381252 -18.91566,0.68254 -20.44215,-5.423427 -0.23882,-0.955275 3.63807,-0.400346 4.17187,0 0.24876,0.186571 0.13906,0.695309 0.41718,0.834372 0.1759,0.08795 0.25356,-0.308097 0.41719,-0.417185 0.67468,-0.449789 1.31668,-0.995143 2.08593,-1.251561 0.52771,-0.1759 1.1125,0 1.66875,0 3.65749,0 2.27492,0.550886 4.58905,-2.920307 z" />
    <path
       style="fill:#ffffff;stroke:none;stroke-width:0.26458300000000001px;stroke-linecap:butt;stroke-linejoin:miter;stroke-opacity:1"
       d="m 97.204494,120.56695 c -0.643009,-0.70159 -0.952493,-1.6964 -0.820974,-2.63894 0.13152,-0.94255 0.701503,-1.81464 1.512007,-2.31341 0.810503,-0.49877 1.845879,-0.6146 2.746563,-0.30726 0.90068,0.30735 1.64928,1.03193 1.98583,1.92211 0.11849,0.31342 0.19139,0.65118 0.38493,0.92471 0.0968,0.13676 0.22446,0.25505 0.37847,0.32099 0.15402,0.0659 0.33574,0.0754 0.48816,0.006 0.0905,-0.0413 0.16732,-0.10799 0.23368,-0.18207 0.0664,-0.0741 0.12331,-0.15596 0.18351,-0.23512 0.69332,-0.91169 1.80001,-1.43047 2.92031,-1.66875 1.63967,-0.34875 3.34887,-0.16564 5.00624,-0.41718 0.41927,-0.0636 0.83519,-0.15509 1.25822,-0.18478 0.42303,-0.0297 0.86049,0.006 1.24489,0.18478 0.44916,0.20927 0.78866,0.59509 1.09364,0.98563 0.30498,0.39055 0.59581,0.80309 0.9923,1.1003 0.40549,0.30395 0.90384,0.4702 1.40779,0.52357 0.50395,0.0534 1.0146,-0.002 1.50986,-0.10923 0.99054,-0.21468 1.92864,-0.6351 2.92296,-0.83153 1.64914,-0.32579 3.36635,-0.0164 4.95613,0.52988 1.58977,0.54627 3.08865,1.32387 4.63917,1.97324 1.73202,0.72539 3.57078,1.31458 5.01044,2.52019 0.71982,0.60281 1.32639,1.36048 1.65725,2.23915 0.33085,0.87867 0.36908,1.88363 0.007,2.75002 -0.3425,0.8202 -1.02476,1.47438 -1.82017,1.87107 -0.7954,0.39668 -1.69756,0.54877 -2.5863,0.53531 -1.77747,-0.0269 -3.47372,-0.68733 -5.18882,-1.15482 -6.91555,-1.885 -14.26328,-0.64635 -21.27652,0.83438 -2.41175,0.5092 -4.84273,1.04868 -7.30753,1.02396 -2.464791,-0.0247 -5.007634,-0.66868 -6.876819,-2.27553 -1.084851,-0.9326 -1.92065,-2.20229 -2.144977,-3.6152 -0.112164,-0.70645 -0.06936,-1.44017 0.150224,-2.12093 0.219585,-0.68077 0.618268,-1.30656 1.160381,-1.77322 0.564042,-0.48554 1.279593,-0.79247 2.020139,-0.86653 0.740546,-0.074 1.502706,0.0851 2.151726,0.44934 z"
       id="path1081"
       inkscape:path-effect="#path-effect1083"
       inkscape:original-d="m 97.204494,120.56695 c -0.45571,-2.9892 3.051486,-3.73282 5.423426,-3.3375 2.50312,0.41719 -0.69531,0.27813 1.25156,1.25157 0.1759,0.0879 0.25042,-0.31296 0.41719,-0.41719 0.95074,-0.59421 1.83606,-1.38342 2.92031,-1.66875 1.61939,-0.42616 3.33428,-0.3243 5.00624,-0.41718 0.83308,-0.0463 1.69365,-0.20237 2.50311,0 0.83046,0.20761 1.26884,1.81356 2.08594,2.08593 1.85167,0.61722 3.88878,-0.41719 5.84061,-0.41719 7.49731,0 5.06031,-0.61468 9.5953,2.50312 0.68367,0.47003 8.6676,5.51675 6.67498,7.50936 -1.31765,1.31765 -8.0051,1.08706 -9.59529,1.25156 -7.16317,0.74102 -14.08137,0.83438 -21.27652,0.83438 -4.68304,0 -9.713841,0.53664 -14.184349,-1.25157 -2.602093,-1.04083 -3.9521,-6.26226 -0.834372,-7.50935 0.819822,-0.32793 3.29428,-0.19779 4.171865,-0.41719 z" />
    <path
       style="fill:#008080;stroke:none;stroke-width:0.26458300000000001px;stroke-linecap:butt;stroke-linejoin:miter;stroke-opacity:1"
       d="m 122.2357,98.873243 c 0.91789,-0.40045 2.00241,-0.40045 2.9203,0 0.57623,0.251394 1.07594,0.645721 1.60208,0.989853 0.52613,0.344134 1.1075,0.647604 1.73541,0.678894 0.51184,0.0255 1.02193,-0.13501 1.46286,-0.39618 0.44093,-0.261177 0.81752,-0.619378 1.15311,-1.006695 0.67116,-0.774633 1.19821,-1.680925 1.97309,-2.351808 0.68039,-0.589078 1.54151,-0.972933 2.43755,-1.05703 0.89603,-0.0841 1.82238,0.136882 2.56869,0.639846 0.3251,0.219094 0.61602,0.489222 0.9584,0.680171 0.1712,0.09548 0.35544,0.170637 0.54869,0.203451 0.19325,0.03281 0.39618,0.02187 0.57884,-0.04925 0.1862,-0.0725 0.34441,-0.204127 0.47716,-0.353472 0.13275,-0.149345 0.24265,-0.317194 0.35722,-0.480899 1.40703,-2.010436 3.6608,-3.460594 6.10365,-3.693127 1.22142,-0.116266 2.4739,0.0685 3.59842,0.559274 1.12452,0.490774 2.11703,1.289389 2.81353,2.299479 0.57082,0.827829 0.95116,1.798694 1.66874,2.503119 0.5106,0.501234 1.16193,0.835138 1.82698,1.099043 0.66506,0.263905 1.35413,0.465518 2.01235,0.746034 0.65822,0.280515 1.29498,0.648965 1.76641,1.187195 0.23572,0.26911 0.42731,0.57904 0.54534,0.91676 0.11804,0.33772 0.16115,0.70362 0.10672,1.05721 -0.0763,0.49568 -0.34364,0.95234 -0.70945,1.29542 -0.3658,0.34308 -0.82572,0.57673 -1.30789,0.71467 -0.96435,0.27586 -1.99098,0.1769 -2.9889,0.0758 -5.27483,-0.53419 -10.55462,-1.0633 -15.85309,-1.25156 -4.87596,-0.17325 -9.78443,-0.0595 -14.60154,-0.83437 -0.87621,-0.14095 -1.77753,-0.32335 -2.50311,-0.83437 -0.51595,-0.36338 -0.91896,-0.88482 -1.14054,-1.47571 -0.22158,-0.59089 -0.26081,-1.248751 -0.11102,-1.861787 z"
       id="path1085"
       inkscape:path-effect="#path-effect1087"
       inkscape:original-d="m 122.2357,98.873243 c 0.97343,0 1.96011,-0.160034 2.9203,0 0.0501,0.0084 3.0072,1.668747 3.33749,1.668747 0.9254,0 2.85946,-3.178148 4.58906,-3.754683 0.92514,-0.308379 3.8345,-0.563652 5.00624,-0.417184 0.74309,0.09288 1.35942,1.016 2.08593,0.834371 0.38159,-0.09539 0.50352,-0.621678 0.83438,-0.834371 4.24422,-2.728431 8.33791,-5.01206 12.5156,-0.834374 0.72773,0.727728 0.85171,1.890342 1.66874,2.503119 1.12585,0.844384 7.64896,2.223922 6.2578,5.006242 -0.0173,0.0346 -4.87304,2.06373 -5.00624,2.08593 -4.89653,0.81609 -11.08421,-0.80448 -15.85309,-1.25156 -4.85417,-0.45508 -9.76366,-0.43122 -14.60154,-0.83437 -0.87646,-0.073 -1.66874,-0.55625 -2.50311,-0.83437 -2.45096,-0.81699 -2.4257,-0.98923 -1.25156,-3.337497 z" />
    <path
       style="fill:#008080;stroke:none;stroke-width:0.26458300000000001px;stroke-linecap:butt;stroke-linejoin:miter;stroke-opacity:1"
       d="m 98.038868,128.91068 c -0.285168,-0.95035 -0.160655,-2.01623 0.335878,-2.87527 0.496534,-0.85904 1.357994,-1.49895 2.323834,-1.72621 0.96584,-0.22726 2.02225,-0.0386 2.84974,0.5089 0.82748,0.54751 1.41421,1.44604 1.58272,2.42384 0.0693,0.4019 0.0741,0.82551 0.2556,1.19074 0.0907,0.18262 0.22752,0.34689 0.40693,0.44379 0.0897,0.0484 0.18925,0.0795 0.29095,0.0867 0.1017,0.007 0.20549,-0.01 0.29808,-0.0524 0.13804,-0.0637 0.24626,-0.18239 0.31477,-0.31809 0.0685,-0.1357 0.0996,-0.28775 0.11027,-0.43939 0.0212,-0.30328 -0.0368,-0.60861 -0.008,-0.91126 0.0412,-0.43178 0.26104,-0.83504 0.56587,-1.14362 0.30482,-0.30858 0.69049,-0.52809 1.09452,-0.68587 0.80807,-0.31556 1.69034,-0.39385 2.51148,-0.67363 1.06517,-0.36293 2.00855,-1.05814 3.10681,-1.30335 0.54913,-0.12261 1.13883,-0.12428 1.65949,0.089 0.26032,0.10665 0.50017,0.26648 0.6897,0.47438 0.18952,0.20791 0.3276,0.46446 0.38461,0.73995 0.0463,0.22365 0.0393,0.45531 0.0795,0.68012 0.0201,0.11241 0.0524,0.22357 0.1069,0.32392 0.0545,0.10035 0.13223,0.18974 0.23073,0.24751 0.1013,0.0594 0.22133,0.0833 0.33862,0.0776 0.11729,-0.006 0.23203,-0.04 0.33826,-0.09 0.21246,-0.10011 0.3894,-0.26038 0.57469,-0.4047 0.63545,-0.49496 1.3999,-0.81772 2.19387,-0.95332 0.79398,-0.13559 1.61623,-0.0861 2.39518,0.11895 1.5168,0.39919 2.81409,1.35567 4.10559,2.24564 1.2915,0.88996 2.67903,1.7553 4.23814,1.92622 1.0838,0.11882 2.181,-0.10827 3.26736,-0.0158 0.54318,0.0462 1.08749,0.17594 1.5575,0.45211 0.47002,0.27616 0.86111,0.70969 1.01575,1.23244 0.0871,0.29447 0.0976,0.61007 0.0399,0.91167 -0.0578,0.3016 -0.183,0.58907 -0.35651,0.84243 -0.34702,0.50672 -0.88064,0.86831 -1.45869,1.0758 -1.1561,0.41499 -2.42852,0.23683 -3.64809,0.0904 -5.94395,-0.71363 -11.95375,-0.5443 -17.93903,-0.41719 -1.8077,0.0384 -3.61679,0.0728 -5.42343,0 -1.54217,-0.0622 -3.08838,-0.20368 -4.58592,-0.57722 -1.49754,-0.37354 -2.95037,-0.9865 -4.174996,-1.9259 -0.625957,-0.48017 -1.188582,-1.04279 -1.668746,-1.66875 z"
       id="path1097"
       inkscape:path-effect="#path-effect1099"
       inkscape:original-d="m 98.038868,128.91068 c 0.75406,-3.39856 4.817762,-3.94315 7.092172,-1.66874 0.49166,0.49166 0.55625,1.66874 1.25156,1.66874 0.44795,0 -0.65937,-0.78792 0.41719,-1.66874 1.25515,-1.02694 2.66041,-1.91533 4.17187,-2.50312 0.41149,-0.16003 5.13944,-1.05176 5.84061,0 0.24393,0.36589 0.17325,0.88566 0.41718,1.25155 0.24394,0.3659 0.82307,-0.3183 1.25157,-0.41718 1.51494,-0.3496 3.03623,-0.75673 4.58905,-0.83437 5.27483,-0.26375 4.86579,1.85324 8.34373,4.17186 1.22044,0.81363 4.74278,-1.07583 5.84061,1.66875 1.31344,3.28358 -3.80824,2.85008 -5.42342,2.92031 -5.97515,0.25979 -12.00409,0.007 -17.93903,-0.41719 -1.80321,-0.1288 -3.62459,0.17988 -5.42343,0 -1.18129,-0.11813 -7.83462,-1.84148 -8.760916,-2.50312 -0.640125,-0.45723 -1.112496,-1.1125 -1.668746,-1.66875 z" />
  </g>
</svg>
